<?xml version="1.0" encoding="UTF-8" standalone="no"?>
<!-- Created with Inkscape (http://www.inkscape.org/) -->

<svg
   width="512"
   height="512"
   viewBox="0 0 135.46667 135.46667"
   version="1.1"
   id="svg5"
   xml:space="preserve"
   inkscape:export-filename="bitmap.png"
   inkscape:export-xdpi="96"
   inkscape:export-ydpi="96"
   inkscape:version="1.2.2 (b0a8486541, 2022-12-01)"
   sodipodi:docname="icon.svg"
   xmlns:inkscape="http://www.inkscape.org/namespaces/inkscape"
   xmlns:sodipodi="http://sodipodi.sourceforge.net/DTD/sodipodi-0.dtd"
   xmlns="http://www.w3.org/2000/svg"
   xmlns:svg="http://www.w3.org/2000/svg"><sodipodi:namedview
     id="namedview7"
     pagecolor="#ffffff"
     bordercolor="#000000"
     borderopacity="0.25"
     inkscape:showpageshadow="2"
     inkscape:pageopacity="0.0"
     inkscape:pagecheckerboard="0"
     inkscape:deskcolor="#d1d1d1"
     inkscape:document-units="mm"
     showgrid="false"
     inkscape:zoom="1.0557596"
     inkscape:cx="84.299492"
     inkscape:cy="238.6907"
     inkscape:window-width="1920"
     inkscape:window-height="1008"
     inkscape:window-x="0"
     inkscape:window-y="0"
     inkscape:window-maximized="1"
     inkscape:current-layer="layer1" /><defs
     id="defs2" /><g
     inkscape:label="Layer 1"
     inkscape:groupmode="layer"
     id="layer1"><path
       style="fill:#808080;stroke-width:0.158151;fill-opacity:1"
       d="m 73.587843,99.92109 c -2.41869,-0.54693 -4.61853,-2.18601 -5.59369,-4.167787 -0.46271,-0.940372 -0.51511,-1.186939 -0.50906,-2.395376 0.007,-1.431742 0.16287,-1.894555 0.95347,-2.834131 0.23,-0.273326 0.55182,-0.56849 0.71516,-0.655913 0.26938,-0.144165 0.28249,-0.120818 0.1411,0.251085 -0.41133,1.081878 -0.065,2.522881 0.84455,3.514423 0.89483,0.975446 1.75917,1.338376 3.18741,1.338376 2.3953,0 4.03567,-1.591077 4.03096,-3.909833 -0.004,-1.90879 -1.15524,-3.288459 -3.87822,-4.647217 -3.0919,-1.542852 -7.50466,-2.336839 -13.88032,-2.497492 -3.8831,-0.09781 -3.92454,-0.102489 -3.84714,-0.430865 0.043,-0.182576 0.1281,-0.817908 0.18905,-1.411861 0.13326,-1.298635 0.11726,-1.288621 2.44357,-1.529681 5.5762,-0.577804 12.3853,-0.250245 16.44164,0.790946 6.94185,1.781851 10.87604,5.43274 10.90696,10.121548 0.0247,3.752984 -2.31065,6.837445 -6.16022,8.136037 -1.6434,0.554371 -4.33194,0.701601 -5.98522,0.327741 z m -42.64971,-9.875119 c 0.0474,-0.07676 1.04886,-0.787225 2.22544,-1.578894 3.15158,-2.120572 7.01693,-3.983478 10.65681,-5.136065 2.84887,-0.9021 7.51868,-1.976898 7.719,-1.776578 0.10648,0.106485 0.50664,1.98249 0.51372,2.408453 0.005,0.302692 -0.10939,0.344037 -1.22011,0.440806 -6.04951,0.527082 -13.70339,2.60214 -18.43182,4.99708 -0.85209,0.431578 -1.51046,0.721916 -1.46304,0.645198 z m 22.65143,-3.461467 c -0.24144,-1.625608 -0.67709,-4.414588 -0.96812,-6.197735 -0.29103,-1.783146 -0.7556,-4.665439 -1.03239,-6.405092 -0.27679,-1.739653 -0.56027,-3.221865 -0.62996,-3.293787 -0.1372,-0.141602 -3.15854,-0.648366 -7.67779,-1.287758 -1.56569,-0.22152 -3.46184,-0.508945 -4.21366,-0.638713 -0.75182,-0.129759 -1.57025,-0.23702 -1.81873,-0.23836 -0.24848,-0.0011 -0.55598,-0.06836 -0.68334,-0.148875 -0.14379,-0.09101 3.09892,-0.151424 8.55606,-0.159557 l 8.78762,-0.01308 0.11581,10.613141 c 0.0637,5.837228 0.0905,10.638422 0.0597,10.669317 -0.0309,0.03093 -0.25371,-1.273875 -0.49515,-2.899472 z m -23.96071,0.741255 c 2.73516,-3.080434 6.9097,-6.110291 11.45441,-8.313534 2.413,-1.169812 7.31603,-2.91963 8.7844,-3.135015 l 0.73479,-0.107793 0.16166,0.766717 c 0.0889,0.42168 0.21045,1.100142 0.27007,1.507673 l 0.10842,0.740966 -0.60949,0.102807 c -2.40149,0.40504 -6.8901,1.677192 -9.30777,2.637999 -3.65655,1.453144 -7.75097,3.643586 -10.80467,5.780286 -0.90126,0.630632 -1.67322,1.146592 -1.71544,1.146592 -0.0422,0 0.3734,-0.507007 0.92362,-1.126689 z m 63.41227,0.251127 c -1.76225,-0.310058 -3.85537,-1.025967 -5.75649,-1.968891 -1.44266,-0.715536 -3.19671,-1.87746 -3.05227,-2.021911 0.0342,-0.03424 0.97559,0.08452 2.09201,0.263779 3.33662,0.535757 4.12196,0.626902 6.90855,0.801737 4.22877,0.265322 8.733097,-0.126729 12.685267,-1.104097 1.02934,-0.254563 1.89733,-0.437054 1.92884,-0.405531 0.0315,0.03158 -0.34072,0.403042 -0.82721,0.825624 -1.75523,1.524685 -3.8464,2.562315 -6.65971,3.304548 -1.991597,0.525432 -5.285207,0.662569 -7.318987,0.304742 z m -67.00284,-3.050898 c -2.87577,-1.074213 -4.73192,-2.2909 -6.73611,-4.415437 -4.04789,-4.290974 -5.41253,-9.969505 -3.8634,-16.076372 1.54717,-6.099097 6.46005,-10.74628 12.81822,-12.124985 1.03095,-0.223548 4.8314,-0.296676 5.85158,-0.112594 l 0.6326,0.114148 0.42108,-1.741854 c 0.82525,-3.413746 2.91224,-6.935653 5.62801,-9.497571 2.91581,-2.750625 6.88347,-4.691958 10.82666,-5.297373 2.10128,-0.322617 5.92328,-0.208047 7.87482,0.236061 6.3244,1.439239 11.1753,5.172594 13.99425,10.770275 0.30558,0.606804 0.5556,1.138264 0.5556,1.181025 0,0.04276 -0.31553,0.433012 -0.70117,0.867228 -1.42344,1.602721 -2.35716,3.840493 -2.54541,6.100427 -0.28212,3.386856 1.36652,6.922919 4.06372,8.716012 1.37553,0.91445 2.56791,1.315113 4.32276,1.452514 l 1.42335,0.111451 -1.18613,0.740308 c -1.39146,0.86846 -4.66944,2.24813 -5.02091,2.113258 -0.13397,-0.05135 -1.99473,-0.378845 -4.13504,-0.727624 -2.14031,-0.348791 -5.386,-0.87751 -7.21264,-1.174927 -1.82663,-0.297418 -3.677,-0.585671 -4.11191,-0.640561 -1.07464,-0.13565 -1.36509,-0.227909 -1.25879,-0.399897 0.0829,-0.134149 -0.54668,-4.325586 -1.91075,-12.720748 -0.74022,-4.555667 -1.19869,-7.591925 -1.29552,-8.579666 -0.0448,-0.456659 -0.13556,-0.83029 -0.20174,-0.83029 -0.0662,0 -0.16838,0.409214 -0.22708,0.909366 -0.0587,0.500151 -0.45257,3.186733 -0.87526,5.970183 -0.42269,2.783449 -1.07002,7.338185 -1.43853,10.121633 -0.36851,2.783449 -0.72466,5.122984 -0.79145,5.198968 -0.0668,0.07602 -2.45763,0.480503 -5.31297,0.898952 -2.85534,0.418446 -7.32656,1.081219 -9.93605,1.472833 -2.60948,0.391614 -5.15909,0.761007 -5.6658,0.820874 -0.50671,0.05986 -0.86255,0.1586 -0.79075,0.219402 0.0718,0.06081 0.80662,0.234001 1.63296,0.384885 2.77239,0.506233 13.03138,2.633077 14.54985,3.016419 2.53951,0.641106 3.24209,0.915505 3.24209,1.266219 0,0.257146 -0.29751,0.401118 -1.73965,0.841818 -5.22753,1.597457 -8.65107,3.217718 -12.66938,5.996034 -2.0413,1.411372 -4.76908,3.738377 -5.61244,4.787828 -0.28158,0.350395 -0.6246,0.634195 -0.76226,0.630665 -0.13767,-0.0032 -0.96405,-0.27303 -1.83641,-0.598887 z m 24.08303,-20.52314 c 0.24846,-0.160016 0.35584,-0.383561 0.35584,-0.740772 0,-0.555417 -0.13347,-0.661915 -3.32116,-2.649834 -0.73935,-0.461081 -1.51945,-0.950883 -1.73354,-1.088447 -0.47742,-0.306763 -0.53433,-0.408162 1.23543,2.201216 1.81957,2.682824 1.86867,2.733006 2.55203,2.608351 0.30556,-0.05571 0.71569,-0.204468 0.9114,-0.330514 z m 11.90084,-1.276832 c 0.65237,-0.9248 1.41379,-1.970853 1.69204,-2.324562 0.27826,-0.353712 0.48579,-0.663239 0.4612,-0.687837 -0.0648,-0.06475 -5.03785,2.788012 -5.29689,3.0385 -0.32162,0.310997 -0.10341,1.256046 0.33935,1.469708 0.19413,0.09366 0.63763,0.173784 0.98556,0.177994 0.62633,0.0074 0.64437,-0.0095 1.81874,-1.673803 z m 30.91843,19.447345 c -3.56938,-0.13417 -8.14911,-0.710805 -11.78221,-1.483496 -1.66978,-0.355127 -4.63635,-1.091107 -4.71499,-1.16975 -0.0278,-0.02785 1.25295,-0.01233 2.84618,0.03434 4.64137,0.13619 9.14803,-0.320648 13.65102,-1.383773 11.266347,-2.659932 20.392647,-10.814225 19.972587,-17.845386 -0.0839,-1.404567 -0.45295,-2.254127 -1.30362,-3.001024 -0.97758,-0.85833 -1.48016,-1.048932 -2.77482,-1.05236 -1.36502,-0.0036 -1.963,0.262421 -2.73395,1.216301 -0.7953,0.984011 -0.79897,2.823974 -0.007,3.76458 0.46554,0.553261 1.44751,1.102461 1.98394,1.109583 0.35032,0.0047 0.35186,0.01077 0.0473,0.187293 -0.17313,0.100362 -0.76494,0.17825 -1.31512,0.173074 -2.60248,-0.02448 -4.48461,-2.251411 -4.26067,-5.041202 0.26184,-3.262163 3.36976,-5.761907 7.16371,-5.761907 2.51399,0 5.00484,1.049656 7.04482,2.968708 3.44973,3.245263 4.69376,8.059952 3.38007,13.081791 -0.31426,1.201334 -1.42753,3.559276 -2.25006,4.765683 -3.06947,4.502053 -8.74327,7.737122 -15.64465,8.920211 -1.64786,0.282493 -6.490527,0.663603 -7.562417,0.595146 -0.26095,-0.01669 -1.04379,-0.05167 -1.73966,-0.07782 z m -36.4537,-4.24747 c 0,-0.01201 0.17791,-1.366922 0.39537,-3.010976 0.21745,-1.644054 0.39537,-3.205671 0.39537,-3.470259 1e-5,-0.508965 -0.54816,-1.126011 -2.09549,-2.358772 -0.41317,-0.329175 -0.75121,-0.661103 -0.75121,-0.737597 0,-0.163716 14.85923,-0.190646 16.70056,-0.0303 l 1.24953,0.108824 -0.9489,0.196152 c -0.5219,0.10789 -3.68886,0.676296 -7.0377,1.263127 -3.34884,0.58684 -6.14419,1.113464 -6.21188,1.170279 -0.14457,0.121349 -0.58249,2.715026 -0.48607,2.878837 0.0362,0.06145 0.15243,0.0808 0.25837,0.04295 0.10595,-0.03785 1.82949,-0.320202 3.83009,-0.627518 7.82135,-1.201462 14.07281,-2.881994 17.97165,-4.831175 3.76211,-1.88083 6.7344,-4.839106 7.56547,-7.529786 0.43946,-1.422803 0.43898,-3.522542 -10e-4,-4.698684 -0.3648,-0.975005 -1.33696,-2.160373 -2.23859,-2.72955 -0.90692,-0.572516 -2.373,-0.902872 -3.43384,-0.773758 -3.70669,0.45114 -5.57813,4.376684 -3.3132,6.949777 0.68236,0.775212 1.42096,1.175188 2.48436,1.345372 l 0.73404,0.117476 -0.47445,0.220611 c -0.29373,0.136582 -1.0166,0.221406 -1.8978,0.222694 -1.20916,0.0018 -1.55426,-0.06003 -2.29319,-0.410598 -1.34468,-0.63797 -2.27817,-1.566736 -2.95872,-2.94374 -0.54584,-1.104426 -0.59831,-1.329983 -0.65298,-2.806841 -0.054,-1.458675 -0.0196,-1.706486 0.37548,-2.702962 1.16655,-2.942486 3.40068,-4.947806 6.79461,-6.09875 0.98854,-0.335231 1.38641,-0.375423 3.71654,-0.375423 2.24345,0 2.78696,0.05069 3.87469,0.361387 6.65861,1.901935 10.96018,8.094744 10.20721,14.694952 -0.24064,2.109462 -1.2742,4.690056 -2.54292,6.349229 -1.38659,1.813341 -4.5835,4.363173 -6.99953,5.582783 -3.47676,1.755059 -8.29909,3.093595 -13.23773,3.674387 -3.04817,0.358475 -4.05898,0.414205 -10.59609,0.584193 -3.34884,0.08707 -6.60477,0.211675 -7.23539,0.276867 -0.63063,0.06517 -1.1466,0.10875 -1.1466,0.09675 z m 26.53964,-0.335712 c 0.11417,-0.04572 0.25057,-0.04008 0.30313,0.01243 0.0526,0.05253 -0.0409,0.08995 -0.20758,0.08304 -0.18424,-0.0074 -0.22171,-0.04508 -0.0956,-0.09558 z m 2.48099,-0.594368 c 3.81597,-0.984929 7.05354,-2.368734 9.50202,-4.061376 1.47647,-1.020683 3.77271,-3.412817 4.5379,-4.7274 0.682617,-1.172714 1.296547,-2.981494 1.460917,-4.304093 l 0.1126,-0.905997 0.73341,0.70555 c 1.77262,1.705251 4.12619,2.285999 6.3736,1.572706 0.32421,-0.102911 0.32469,-0.09855 0.0419,0.380218 -0.98991,1.675767 -3.66584,4.191069 -6.42315,6.03758 -4.460067,2.9868 -9.555337,4.860995 -15.225557,5.600431 -3.11922,0.406774 -3.47466,0.311782 -1.11363,-0.297619 z m -31.33236,-9.972759 c 0.0492,-0.521892 0.14008,-4.614041 0.20205,-9.093654 0.0671,-4.84804 0.16416,-7.888697 0.23988,-7.512152 0.07,0.347932 0.4532,2.967846 0.85164,5.82203 0.90993,6.518239 1.24628,8.4965 1.46789,8.633468 0.10596,0.06549 -0.42258,0.699089 -1.33783,1.60374 l -1.51301,1.495478 z"
       id="path3856" /></g></svg>
